<svg xmlns="http://www.w3.org/2000/svg" viewBox="0 0 256 256" width="256" height="256">
  <defs>
    <linearGradient id="cover" x1="0" y1="0" x2="1" y2="1">
      <stop offset="0" stop-color="#ff7a5c"/>
      <stop offset="1" stop-color="#e11d48"/>
    </linearGradient>
    <clipPath id="cc"><rect x="58" y="36" width="140" height="184" rx="16"/></clipPath>
  </defs>

  <!-- drop shadow -->
  <rect x="58" y="36" width="140" height="184" rx="16" fill="#000" opacity="0.18" transform="translate(5,7)"/>

  <!-- cover -->
  <rect x="58" y="36" width="140" height="184" rx="16" fill="url(#cover)"/>

  <!-- concentration / speed lines -->
  <g clip-path="url(#cc)" stroke="#ffffff" stroke-linecap="round" opacity="0.5">
    <line x1="146.0" y1="130.0" x2="368.0" y2="130.0" stroke-width="3.4"/>
    <line x1="145.8" y1="132.8" x2="365.0" y2="167.5" stroke-width="1.8"/>
    <line x1="145.1" y1="135.6" x2="356.3" y2="204.2" stroke-width="1.8"/>
    <line x1="144.0" y1="138.2" x2="341.8" y2="239.0" stroke-width="3.4"/>
    <line x1="142.6" y1="140.6" x2="322.2" y2="271.1" stroke-width="1.8"/>
    <line x1="140.7" y1="142.7" x2="297.7" y2="299.7" stroke-width="1.8"/>
    <line x1="138.6" y1="144.6" x2="269.1" y2="324.2" stroke-width="3.4"/>
    <line x1="136.2" y1="146.0" x2="237.0" y2="343.8" stroke-width="1.8"/>
    <line x1="133.6" y1="147.1" x2="202.2" y2="358.3" stroke-width="1.8"/>
    <line x1="130.8" y1="147.8" x2="165.5" y2="367.0" stroke-width="3.4"/>
    <line x1="128.0" y1="148.0" x2="128.0" y2="370.0" stroke-width="1.8"/>
    <line x1="125.2" y1="147.8" x2="90.5" y2="367.0" stroke-width="1.8"/>
    <line x1="122.4" y1="147.1" x2="53.8" y2="358.3" stroke-width="3.4"/>
    <line x1="119.8" y1="146.0" x2="19.0" y2="343.8" stroke-width="1.8"/>
    <line x1="117.4" y1="144.6" x2="-13.1" y2="324.2" stroke-width="1.8"/>
    <line x1="115.3" y1="142.7" x2="-41.7" y2="299.7" stroke-width="3.4"/>
    <line x1="113.4" y1="140.6" x2="-66.2" y2="271.1" stroke-width="1.8"/>
    <line x1="112.0" y1="138.2" x2="-85.8" y2="239.0" stroke-width="1.8"/>
    <line x1="110.9" y1="135.6" x2="-100.3" y2="204.2" stroke-width="3.4"/>
    <line x1="110.2" y1="132.8" x2="-109.0" y2="167.5" stroke-width="1.8"/>
    <line x1="110.0" y1="130.0" x2="-112.0" y2="130.0" stroke-width="1.8"/>
    <line x1="110.2" y1="127.2" x2="-109.0" y2="92.5" stroke-width="3.4"/>
    <line x1="110.9" y1="124.4" x2="-100.3" y2="55.8" stroke-width="1.8"/>
    <line x1="112.0" y1="121.8" x2="-85.8" y2="21.0" stroke-width="1.8"/>
    <line x1="113.4" y1="119.4" x2="-66.2" y2="-11.1" stroke-width="3.4"/>
    <line x1="115.3" y1="117.3" x2="-41.7" y2="-39.7" stroke-width="1.8"/>
    <line x1="117.4" y1="115.4" x2="-13.1" y2="-64.2" stroke-width="1.8"/>
    <line x1="119.8" y1="114.0" x2="19.0" y2="-83.8" stroke-width="3.4"/>
    <line x1="122.4" y1="112.9" x2="53.8" y2="-98.3" stroke-width="1.8"/>
    <line x1="125.2" y1="112.2" x2="90.5" y2="-107.0" stroke-width="1.8"/>
    <line x1="128.0" y1="112.0" x2="128.0" y2="-110.0" stroke-width="3.4"/>
    <line x1="130.8" y1="112.2" x2="165.5" y2="-107.0" stroke-width="1.8"/>
    <line x1="133.6" y1="112.9" x2="202.2" y2="-98.3" stroke-width="1.8"/>
    <line x1="136.2" y1="114.0" x2="237.0" y2="-83.8" stroke-width="3.4"/>
    <line x1="138.6" y1="115.4" x2="269.1" y2="-64.2" stroke-width="1.8"/>
    <line x1="140.7" y1="117.3" x2="297.7" y2="-39.7" stroke-width="1.8"/>
    <line x1="142.6" y1="119.4" x2="322.2" y2="-11.1" stroke-width="3.4"/>
    <line x1="144.0" y1="121.8" x2="341.8" y2="21.0" stroke-width="1.8"/>
    <line x1="145.1" y1="124.4" x2="356.3" y2="55.8" stroke-width="1.8"/>
    <line x1="145.8" y1="127.2" x2="365.0" y2="92.5" stroke-width="3.4"/>
  </g>

  <!-- clean focal eye -->
  <circle cx="128" cy="130" r="13" fill="#ffffff" opacity="0.95"/>
  <circle cx="128" cy="130" r="5.5" fill="#e11d48"/>

  <!-- spine -->
  <rect x="58" y="36" width="22" height="184" rx="14" fill="#000" opacity="0.22"/>
  <rect x="78" y="36" width="4" height="184" fill="#ffffff" opacity="0.25"/>

  <!-- speech bubble (comic marker) -->
  <g>
    <ellipse cx="176" cy="70" rx="32" ry="24" fill="#ffffff"/>
    <path d="M158 84 L150 106 L176 88 Z" fill="#ffffff"/>
    <circle cx="164" cy="70" r="4" fill="#e11d48"/>
    <circle cx="176" cy="70" r="4" fill="#e11d48"/>
    <circle cx="188" cy="70" r="4" fill="#e11d48"/>
  </g>
</svg>
