<svg xmlns="http://www.w3.org/2000/svg" viewBox="0 0 128 128">
  <!-- fm (Miller columns file manager) launcher icon -->
  <rect x="4" y="4" width="120" height="120" rx="26" fill="#232839"/>
  <rect x="17" y="22" width="27" height="84" rx="7" fill="#3a4059"/>
  <rect x="22" y="30" width="17" height="7" rx="3.5" fill="#aab3d0"/>
  <rect x="22" y="43" width="17" height="7" rx="3.5" fill="#00d5d5"/>
  <rect x="22" y="56" width="17" height="7" rx="3.5" fill="#aab3d0"/>
  <rect x="50" y="22" width="27" height="84" rx="7" fill="#3a4059"/>
  <rect x="55" y="30" width="17" height="7" rx="3.5" fill="#aab3d0"/>
  <rect x="55" y="43" width="17" height="7" rx="3.5" fill="#aab3d0"/>
  <rect x="55" y="56" width="17" height="7" rx="3.5" fill="#00d5d5"/>
  <rect x="83" y="22" width="28" height="84" rx="7" fill="#00d5d5"/>
  <rect x="88" y="32" width="18" height="26" rx="5" fill="#10525e"/>
  <rect x="88" y="66" width="18" height="7" rx="3.5" fill="#10525e"/>
  <rect x="88" y="79" width="12" height="7" rx="3.5" fill="#10525e"/>
</svg>
